<mxfile host="app.diagrams.net" modified="2024-02-01T15:48:06.301Z" agent="Mozilla/5.0 (X11; Ubuntu; Linux x86_64; rv:121.0) Gecko/20100101 Firefox/121.0" etag="zh9RnCm8e_S1io43Tysr" version="23.1.0" type="github">
  <diagram name="Page-1" id="65NgeLhHs-_pSCDzRT6D">
    <mxGraphModel dx="984" dy="579" grid="1" gridSize="10" guides="1" tooltips="1" connect="1" arrows="1" fold="1" page="1" pageScale="1" pageWidth="827" pageHeight="1169" math="0" shadow="0">
      <root>
        <mxCell id="0" />
        <mxCell id="1" parent="0" />
        <mxCell id="ZylXwCgt5cqFG4pVSG_G-35" value="&lt;div&gt;Database&lt;/div&gt;&lt;div&gt;[Container]&lt;br&gt;&lt;/div&gt;" style="shape=hexagon;perimeter=hexagonPerimeter2;whiteSpace=wrap;html=1;fixedSize=1;rounded=1;" vertex="1" parent="1">
          <mxGeometry x="680" y="960" width="120" height="80" as="geometry" />
        </mxCell>
        <mxCell id="ZylXwCgt5cqFG4pVSG_G-46" value="&lt;div&gt;Contexte :&lt;/div&gt;&lt;div&gt;- Utilisateurs&lt;/div&gt;&lt;div&gt;-Annonceurs&lt;/div&gt;&lt;div&gt;-Développeurs &lt;br&gt;&lt;/div&gt;" style="rounded=1;whiteSpace=wrap;html=1;" vertex="1" parent="1">
          <mxGeometry x="290" y="215" width="140" height="80" as="geometry" />
        </mxCell>
        <mxCell id="ZylXwCgt5cqFG4pVSG_G-80" value="&lt;div&gt;&lt;br&gt;&lt;/div&gt;&lt;div&gt;&lt;br&gt;&lt;/div&gt;" style="shape=actor;whiteSpace=wrap;html=1;dashed=0;strokeColor=#FFFFFF;align=center;verticalAlign=middle;spacingRight=-6;spacingTop=-16;spacingBottom=-9;spacing=2;fontFamily=Helvetica;fontSize=12;fontColor=#FFFFFF;fillColor=#007FFF;" vertex="1" parent="1">
          <mxGeometry x="300" y="10" width="120" height="120" as="geometry" />
        </mxCell>
        <mxCell id="ZylXwCgt5cqFG4pVSG_G-92" value="Service 1 API " style="html=1;whiteSpace=wrap;aspect=fixed;shape=isoRectangle;dashed=0;strokeColor=#4D4D4D;align=center;verticalAlign=middle;spacingRight=-6;spacingTop=-16;spacingBottom=-9;spacing=2;fontFamily=Helvetica;fontSize=12;fontColor=default;fillColor=#FFFFFF;" vertex="1" parent="1">
          <mxGeometry x="665" y="630" width="150" height="90" as="geometry" />
        </mxCell>
        <mxCell id="ZylXwCgt5cqFG4pVSG_G-93" value="Service 1 API " style="html=1;whiteSpace=wrap;aspect=fixed;shape=isoRectangle;dashed=0;strokeColor=#4D4D4D;align=center;verticalAlign=middle;spacingRight=-6;spacingTop=-16;spacingBottom=-9;spacing=2;fontFamily=Helvetica;fontSize=12;fontColor=default;fillColor=#FFFFFF;" vertex="1" parent="1">
          <mxGeometry x="665" y="760" width="150" height="90" as="geometry" />
        </mxCell>
        <mxCell id="ZylXwCgt5cqFG4pVSG_G-100" value="" style="endArrow=classic;html=1;rounded=0;fontFamily=Helvetica;fontSize=12;fontColor=default;exitX=0.5;exitY=1;exitDx=0;exitDy=0;" edge="1" parent="1" source="ZylXwCgt5cqFG4pVSG_G-80">
          <mxGeometry width="50" height="50" relative="1" as="geometry">
            <mxPoint x="430" y="310" as="sourcePoint" />
            <mxPoint x="360" y="170" as="targetPoint" />
          </mxGeometry>
        </mxCell>
        <mxCell id="ZylXwCgt5cqFG4pVSG_G-101" value="" style="endArrow=classic;html=1;rounded=0;fontFamily=Helvetica;fontSize=12;fontColor=default;entryX=0.5;entryY=0;entryDx=0;entryDy=0;exitX=0.5;exitY=1;exitDx=0;exitDy=0;" edge="1" parent="1" source="ZylXwCgt5cqFG4pVSG_G-46" target="ZylXwCgt5cqFG4pVSG_G-102">
          <mxGeometry width="50" height="50" relative="1" as="geometry">
            <mxPoint x="240" y="270" as="sourcePoint" />
            <mxPoint x="480" y="260" as="targetPoint" />
          </mxGeometry>
        </mxCell>
        <mxCell id="ZylXwCgt5cqFG4pVSG_G-102" value="Conteneurs" style="rounded=1;whiteSpace=wrap;html=1;" vertex="1" parent="1">
          <mxGeometry x="290" y="440" width="140" height="80" as="geometry" />
        </mxCell>
        <mxCell id="ZylXwCgt5cqFG4pVSG_G-103" value="Serveurs Web" style="rounded=1;whiteSpace=wrap;html=1;" vertex="1" parent="1">
          <mxGeometry x="90" y="590" width="140" height="80" as="geometry" />
        </mxCell>
        <mxCell id="ZylXwCgt5cqFG4pVSG_G-104" value="Bases de Données" style="rounded=1;whiteSpace=wrap;html=1;" vertex="1" parent="1">
          <mxGeometry x="505" y="590" width="140" height="80" as="geometry" />
        </mxCell>
        <mxCell id="ZylXwCgt5cqFG4pVSG_G-105" value="Tweets" style="html=1;whiteSpace=wrap;aspect=fixed;shape=isoRectangle;dashed=0;strokeColor=#4D4D4D;align=center;verticalAlign=middle;spacingRight=-6;spacingTop=-16;spacingBottom=-9;spacing=2;fontFamily=Helvetica;fontSize=12;fontColor=default;fillColor=#FFFFFF;" vertex="1" parent="1">
          <mxGeometry x="300" y="760" width="150" height="90" as="geometry" />
        </mxCell>
        <mxCell id="ZylXwCgt5cqFG4pVSG_G-107" value="" style="endArrow=none;dashed=1;html=1;rounded=0;fontFamily=Helvetica;fontSize=12;fontColor=default;entryX=0.507;entryY=1.011;entryDx=0;entryDy=0;entryPerimeter=0;" edge="1" parent="1" target="ZylXwCgt5cqFG4pVSG_G-92">
          <mxGeometry width="50" height="50" relative="1" as="geometry">
            <mxPoint x="741" y="760" as="sourcePoint" />
            <mxPoint x="930" y="803" as="targetPoint" />
          </mxGeometry>
        </mxCell>
        <mxCell id="ZylXwCgt5cqFG4pVSG_G-110" value="" style="endArrow=classic;html=1;rounded=0;fontFamily=Helvetica;fontSize=12;fontColor=default;entryX=0.05;entryY=0;entryDx=0;entryDy=0;exitX=1;exitY=1;exitDx=0;exitDy=0;entryPerimeter=0;" edge="1" parent="1" source="ZylXwCgt5cqFG4pVSG_G-102" target="ZylXwCgt5cqFG4pVSG_G-104">
          <mxGeometry width="50" height="50" relative="1" as="geometry">
            <mxPoint x="240" y="730" as="sourcePoint" />
            <mxPoint x="290" y="680" as="targetPoint" />
          </mxGeometry>
        </mxCell>
        <mxCell id="ZylXwCgt5cqFG4pVSG_G-111" value="" style="endArrow=classic;html=1;rounded=0;fontFamily=Helvetica;fontSize=12;fontColor=default;entryX=0.943;entryY=0.025;entryDx=0;entryDy=0;exitX=0.021;exitY=0.925;exitDx=0;exitDy=0;entryPerimeter=0;exitPerimeter=0;" edge="1" parent="1" source="ZylXwCgt5cqFG4pVSG_G-102" target="ZylXwCgt5cqFG4pVSG_G-103">
          <mxGeometry width="50" height="50" relative="1" as="geometry">
            <mxPoint x="290" y="530" as="sourcePoint" />
            <mxPoint x="290" y="680" as="targetPoint" />
          </mxGeometry>
        </mxCell>
        <mxCell id="ZylXwCgt5cqFG4pVSG_G-123" value="" style="endArrow=none;dashed=1;html=1;rounded=0;fontFamily=Helvetica;fontSize=12;fontColor=default;exitX=0.253;exitY=0.2;exitDx=0;exitDy=0;exitPerimeter=0;entryX=0.75;entryY=1;entryDx=0;entryDy=0;" edge="1" parent="1" source="ZylXwCgt5cqFG4pVSG_G-105" target="ZylXwCgt5cqFG4pVSG_G-103">
          <mxGeometry width="50" height="50" relative="1" as="geometry">
            <mxPoint x="220" y="730" as="sourcePoint" />
            <mxPoint x="270" y="680" as="targetPoint" />
          </mxGeometry>
        </mxCell>
        <mxCell id="ZylXwCgt5cqFG4pVSG_G-124" value="" style="endArrow=none;dashed=1;html=1;rounded=0;fontFamily=Helvetica;fontSize=12;fontColor=default;entryX=0.02;entryY=0.511;entryDx=0;entryDy=0;entryPerimeter=0;" edge="1" parent="1" target="ZylXwCgt5cqFG4pVSG_G-93">
          <mxGeometry width="50" height="50" relative="1" as="geometry">
            <mxPoint x="446" y="805" as="sourcePoint" />
            <mxPoint x="270" y="680" as="targetPoint" />
          </mxGeometry>
        </mxCell>
        <mxCell id="ZylXwCgt5cqFG4pVSG_G-126" value="Users" style="text;html=1;align=center;verticalAlign=middle;resizable=0;points=[];autosize=1;strokeColor=none;fillColor=none;fontSize=12;fontFamily=Helvetica;fontColor=default;" vertex="1" parent="1">
          <mxGeometry x="335" y="170" width="50" height="30" as="geometry" />
        </mxCell>
        <mxCell id="ZylXwCgt5cqFG4pVSG_G-127" value="" style="endArrow=classic;html=1;rounded=0;fontFamily=Helvetica;fontSize=12;fontColor=default;entryX=0.5;entryY=0;entryDx=0;entryDy=0;" edge="1" parent="1" target="ZylXwCgt5cqFG4pVSG_G-46">
          <mxGeometry width="50" height="50" relative="1" as="geometry">
            <mxPoint x="360" y="190" as="sourcePoint" />
            <mxPoint x="360" y="210" as="targetPoint" />
          </mxGeometry>
        </mxCell>
        <mxCell id="ZylXwCgt5cqFG4pVSG_G-128" value="CODE" style="rounded=1;whiteSpace=wrap;html=1;" vertex="1" parent="1">
          <mxGeometry x="90" y="1080" width="140" height="80" as="geometry" />
        </mxCell>
        <mxCell id="ZylXwCgt5cqFG4pVSG_G-129" value="" style="endArrow=classic;html=1;rounded=0;fontFamily=Helvetica;fontSize=12;fontColor=default;entryX=0.247;entryY=0.233;entryDx=0;entryDy=0;entryPerimeter=0;exitX=0.75;exitY=1;exitDx=0;exitDy=0;" edge="1" parent="1" source="ZylXwCgt5cqFG4pVSG_G-104" target="ZylXwCgt5cqFG4pVSG_G-93">
          <mxGeometry width="50" height="50" relative="1" as="geometry">
            <mxPoint x="630" y="670" as="sourcePoint" />
            <mxPoint x="680" y="620" as="targetPoint" />
          </mxGeometry>
        </mxCell>
        <mxCell id="ZylXwCgt5cqFG4pVSG_G-130" value="" style="endArrow=classic;html=1;rounded=0;fontFamily=Helvetica;fontSize=12;fontColor=default;entryX=0.5;entryY=0;entryDx=0;entryDy=0;exitX=0.5;exitY=0.989;exitDx=0;exitDy=0;exitPerimeter=0;" edge="1" parent="1" source="ZylXwCgt5cqFG4pVSG_G-93" target="ZylXwCgt5cqFG4pVSG_G-35">
          <mxGeometry width="50" height="50" relative="1" as="geometry">
            <mxPoint x="630" y="880" as="sourcePoint" />
            <mxPoint x="680" y="830" as="targetPoint" />
          </mxGeometry>
        </mxCell>
        <mxCell id="ZylXwCgt5cqFG4pVSG_G-133" value="" style="endArrow=classic;html=1;rounded=0;fontFamily=Helvetica;fontSize=12;fontColor=default;exitX=0.5;exitY=1;exitDx=0;exitDy=0;entryX=0.5;entryY=0;entryDx=0;entryDy=0;" edge="1" parent="1" source="ZylXwCgt5cqFG4pVSG_G-103" target="ZylXwCgt5cqFG4pVSG_G-128">
          <mxGeometry width="50" height="50" relative="1" as="geometry">
            <mxPoint x="390" y="890" as="sourcePoint" />
            <mxPoint x="440" y="840" as="targetPoint" />
          </mxGeometry>
        </mxCell>
        <mxCell id="ZylXwCgt5cqFG4pVSG_G-134" value="" style="endArrow=classic;html=1;rounded=0;fontFamily=Helvetica;fontSize=12;fontColor=default;exitX=0.5;exitY=1;exitDx=0;exitDy=0;entryX=1;entryY=0.5;entryDx=0;entryDy=0;" edge="1" parent="1" source="ZylXwCgt5cqFG4pVSG_G-104" target="ZylXwCgt5cqFG4pVSG_G-128">
          <mxGeometry width="50" height="50" relative="1" as="geometry">
            <mxPoint x="390" y="890" as="sourcePoint" />
            <mxPoint x="440" y="840" as="targetPoint" />
          </mxGeometry>
        </mxCell>
      </root>
    </mxGraphModel>
  </diagram>
</mxfile>
